<svg width="29" height="28" viewBox="0 0 29 28" fill="none" xmlns="http://www.w3.org/2000/svg">
<path d="M2.41659 14.5001C2.41659 8.80394 2.41659 5.95587 4.18619 4.18632C5.95567 2.41675 8.80384 2.41675 14.4999 2.41675M2.48317 19.3334C2.61524 21.9838 3.00952 23.6373 4.18619 24.8138C5.95567 26.5834 8.80384 26.5834 14.4999 26.5834C20.1961 26.5834 23.0441 26.5834 24.8137 24.8138C26.5833 23.0443 26.5833 20.1962 26.5833 14.5001C26.5833 8.80394 26.5833 5.95587 24.8137 4.18632C23.6371 3.00971 21.9837 2.61545 19.3333 2.48333" stroke="white" stroke-width="1.8125" stroke-linecap="round"/>
<path d="M26.5833 16.9167C26.5833 13.533 26.5833 11.8412 25.9247 10.5488C25.3455 9.412 24.4213 8.48773 23.2844 7.90851C21.9921 7.25 20.3002 7.25 16.9166 7.25H12.0833C8.69956 7.25 7.00777 7.25 5.71533 7.90851C4.57853 8.48773 3.65428 9.412 3.07513 10.5488C2.59614 11.4888 2.46552 12.6401 2.42988 14.5" stroke="white" stroke-width="1.8125" stroke-linecap="round"/>
<path d="M8.45842 7.25V13.0592C8.45842 14.2372 8.45842 14.8263 8.61441 15.1775C8.97002 15.9782 9.84727 16.4098 10.6985 16.2031C11.0722 16.1124 11.5388 15.753 12.4723 15.0343C12.9992 14.6286 13.2627 14.4257 13.537 14.3064C14.1514 14.0396 14.8488 14.0396 15.4631 14.3064C15.7374 14.4257 16.001 14.6286 16.5279 15.0343C17.4613 15.753 17.928 16.1124 18.3016 16.2031C19.1529 16.4098 20.0301 15.9782 20.3857 15.1775C20.5417 14.8263 20.5417 14.2372 20.5417 13.0592V7.25" stroke="white" stroke-width="1.8125"/>
</svg>
