<svg width="32" height="32" viewBox="0 0 32 32" fill="none" xmlns="http://www.w3.org/2000/svg">
<g clip-path="url(#clip0_84_9262)">
<path d="M3.41659 18.5001C3.41659 12.8039 3.41659 9.95587 5.18619 8.18632C6.95567 6.41675 9.80384 6.41675 15.4999 6.41675M3.48317 23.3334C3.61524 25.9838 4.00952 27.6373 5.18619 28.8138C6.95567 30.5834 9.80384 30.5834 15.4999 30.5834C21.1961 30.5834 24.0441 30.5834 25.8137 28.8138C27.5833 27.0443 27.5833 24.1962 27.5833 18.5001C27.5833 12.8039 27.5833 9.95587 25.8137 8.18632C24.6371 7.00971 22.9837 6.61545 20.3333 6.48333" stroke="white" stroke-width="1.8125" stroke-linecap="round"/>
<path d="M27.5833 20.9167C27.5833 17.533 27.5833 15.8412 26.9247 14.5488C26.3455 13.412 25.4213 12.4877 24.2844 11.9085C22.9921 11.25 21.3002 11.25 17.9166 11.25H13.0833C9.69956 11.25 8.00777 11.25 6.71533 11.9085C5.57853 12.4877 4.65428 13.412 4.07513 14.5488C3.59614 15.4888 3.46552 16.6401 3.42988 18.5" stroke="white" stroke-width="1.8125" stroke-linecap="round"/>
<path d="M9.45842 11.25V17.0592C9.45842 18.2372 9.45842 18.8263 9.61441 19.1775C9.97002 19.9782 10.8473 20.4098 11.6985 20.2031C12.0722 20.1124 12.5388 19.753 13.4723 19.0343C13.9992 18.6286 14.2627 18.4257 14.537 18.3064C15.1514 18.0396 15.8488 18.0396 16.4631 18.3064C16.7374 18.4257 17.001 18.6286 17.5279 19.0343C18.4613 19.753 18.928 20.1124 19.3016 20.2031C20.1529 20.4098 21.0301 19.9782 21.3857 19.1775C21.5417 18.8263 21.5417 18.2372 21.5417 17.0592V11.25" stroke="white" stroke-width="1.8125"/>
</g>
<defs>
<clipPath id="clip0_84_9262">
<rect width="32" height="32" fill="white"/>
</clipPath>
</defs>
</svg>
