<svg width="28" height="27" viewBox="0 0 28 27" fill="none" xmlns="http://www.w3.org/2000/svg">
<g clip-path="url(#clip0_84_9249)">
<path d="M17.122 13.4156L23.0282 7.50933C23.1849 7.35269 23.2729 7.14024 23.2729 6.91871C23.2729 6.69718 23.1849 6.48473 23.0282 6.32808C22.8716 6.17144 22.6591 6.08344 22.4376 6.08344C22.2161 6.08344 22.0036 6.17144 21.847 6.32808L15.9407 12.2343C15.8402 12.3008 15.7541 12.3869 15.6876 12.4875C15.1799 12.1723 14.5975 11.9976 14.0001 11.9812C13.3326 11.9812 12.6801 12.1791 12.1251 12.55C11.5701 12.9208 11.1375 13.448 10.882 14.0647C10.6266 14.6814 10.5597 15.36 10.69 16.0146C10.8202 16.6693 11.1416 17.2707 11.6136 17.7427C12.0856 18.2147 12.687 18.5361 13.3417 18.6664C13.9964 18.7966 14.675 18.7297 15.2917 18.4743C15.9084 18.2189 16.4355 17.7863 16.8063 17.2313C17.1772 16.6762 17.3751 16.0237 17.3751 15.3562C17.3587 14.7588 17.184 14.1765 16.8689 13.6687C16.9694 13.6023 17.0555 13.5162 17.122 13.4156ZM14.0001 17.0437C13.6664 17.0437 13.3401 16.9447 13.0626 16.7593C12.7851 16.5739 12.5688 16.3103 12.4411 16.002C12.3133 15.6936 12.2799 15.3543 12.345 15.027C12.4102 14.6997 12.5709 14.399 12.8069 14.163C13.0429 13.927 13.3436 13.7662 13.6709 13.7011C13.9982 13.636 14.3375 13.6694 14.6459 13.7972C14.9542 13.9249 15.2178 14.1412 15.4032 14.4187C15.5886 14.6962 15.6876 15.0225 15.6876 15.3562C15.6876 15.8038 15.5098 16.233 15.1934 16.5495C14.8769 16.8659 14.4477 17.0437 14.0001 17.0437ZM27.5001 14.8331C27.5882 16.6974 27.2888 18.5597 26.6207 20.3024C25.9527 22.0451 24.9306 23.6304 23.6189 24.9581C23.4563 25.1099 23.2422 25.1944 23.0198 25.1944C22.7974 25.1944 22.5833 25.1099 22.4207 24.9581L20.227 22.7475C20.0703 22.5908 19.9823 22.3784 19.9823 22.1568C19.9823 21.9353 20.0703 21.7229 20.227 21.5662C20.3836 21.4096 20.5961 21.3216 20.8176 21.3216C21.0391 21.3216 21.2516 21.4096 21.4082 21.5662L22.9945 23.1356C24.841 20.967 25.8418 18.2043 25.8126 15.3562H23.2814C23.0576 15.3562 22.843 15.2673 22.6847 15.1091C22.5265 14.9508 22.4376 14.7362 22.4376 14.5125C22.4376 14.2887 22.5265 14.0741 22.6847 13.9158C22.843 13.7576 23.0576 13.6687 23.2814 13.6687H25.6776C25.5159 12.5024 25.1863 11.3656 24.6989 10.2937C24.6363 10.1924 24.5958 10.079 24.5802 9.96088C24.5645 9.8428 24.5741 9.72275 24.6082 9.60863C24.6423 9.49451 24.7002 9.3889 24.778 9.29875C24.8558 9.20859 24.9519 9.13595 25.0598 9.08558C25.1678 9.03521 25.2851 9.00826 25.4042 9.00651C25.5233 9.00476 25.6414 9.02824 25.7508 9.07541C25.8602 9.12259 25.9583 9.19238 26.0388 9.2802C26.1192 9.36803 26.1802 9.47189 26.2176 9.58496C26.8731 10.9998 27.2731 12.5195 27.3989 14.0737C27.4537 14.1808 27.4822 14.2994 27.4822 14.4196C27.4822 14.5399 27.4537 14.6585 27.3989 14.7656L27.5001 14.8331ZM7.90824 21.5831C7.98895 21.6588 8.05329 21.7503 8.09726 21.8519C8.14124 21.9535 8.16393 22.063 8.16393 22.1737C8.16393 22.2844 8.14124 22.3939 8.09726 22.4955C8.05329 22.5971 7.98895 22.6886 7.90824 22.7643L5.71449 24.975C5.55197 25.1268 5.33785 25.2113 5.11543 25.2113C4.89301 25.2113 4.67889 25.1268 4.51637 24.975C3.24284 23.7179 2.23194 22.2201 1.54246 20.5688C0.852969 18.9176 0.498655 17.1457 0.500115 15.3562C0.500115 15.12 0.500115 14.9006 0.500115 14.6812C0.493702 14.6251 0.493702 14.5685 0.500115 14.5125C0.482384 14.4233 0.482384 14.3316 0.500115 14.2425C0.759073 10.8774 2.27687 7.73353 4.75085 5.43782C7.22484 3.14212 10.4732 1.86324 13.8482 1.85621H14.0001C14.0837 1.84025 14.1696 1.84025 14.2532 1.85621C16.1371 1.87407 17.9954 2.29406 19.7039 3.08808C19.8046 3.13344 19.8952 3.19852 19.9704 3.27949C20.0455 3.36045 20.1037 3.45565 20.1415 3.55947C20.1792 3.66329 20.1958 3.77362 20.1902 3.88395C20.1846 3.99428 20.1569 4.10237 20.1089 4.20183C20.0635 4.30256 19.9984 4.39318 19.9175 4.46834C19.8365 4.5435 19.7413 4.60168 19.6375 4.63943C19.5337 4.67718 19.4233 4.69375 19.313 4.68815C19.2027 4.68255 19.0946 4.6549 18.9951 4.60683C17.6808 4.03563 16.2749 3.70416 14.8439 3.62808V6.07496C14.8439 6.29874 14.755 6.51335 14.5967 6.67158C14.4385 6.82981 14.2239 6.91871 14.0001 6.91871C13.7763 6.91871 13.5617 6.82981 13.4035 6.67158C13.2453 6.51335 13.1564 6.29874 13.1564 6.07496V3.54371C10.3295 3.73178 7.66439 4.92959 5.64699 6.91871C3.80696 8.73391 2.62013 11.1076 2.27199 13.6687H4.71886C4.94264 13.6687 5.15725 13.7576 5.31549 13.9158C5.47372 14.0741 5.56261 14.2887 5.56261 14.5125C5.56261 14.7362 5.47372 14.9508 5.31549 15.1091C5.15725 15.2673 4.94264 15.3562 4.71886 15.3562H2.18761C2.17711 18.1977 3.20306 20.9456 5.07324 23.085L6.65949 21.5156C6.73524 21.4349 6.82673 21.3705 6.92832 21.3266C7.0299 21.2826 7.13942 21.2599 7.25011 21.2599C7.36081 21.2599 7.47033 21.2826 7.57191 21.3266C7.6735 21.3705 7.76499 21.4349 7.84074 21.5156L7.90824 21.5831Z" fill="white"/>
</g>
<defs>
<clipPath id="clip0_84_9249">
<rect width="27" height="27" fill="white" transform="translate(0.5)"/>
</clipPath>
</defs>
</svg>
