<svg width="14" height="16" viewBox="0 0 14 16" fill="none" xmlns="http://www.w3.org/2000/svg">
<path d="M10.4287 7L10.4287 14.7143" stroke="black" stroke-width="1.71428" stroke-linecap="round"/>
<path d="M3.57153 1L3.57153 9.57142" stroke="black" stroke-width="1.71428" stroke-linecap="round"/>
<path d="M10.4286 0.999968C9.00841 0.999968 7.85715 2.15124 7.85715 3.5714C7.85715 4.99156 9.00841 6.14282 10.4286 6.14282C11.8487 6.14282 13 4.99156 13 3.5714C13 2.15124 11.8487 0.999968 10.4286 0.999968Z" stroke="black" stroke-width="1.71428" stroke-linecap="round"/>
<path d="M3.5714 9.5715C2.15124 9.5715 0.999969 10.7228 0.999969 12.1429C0.999969 13.5631 2.15124 14.7144 3.5714 14.7144C4.99156 14.7144 6.14282 13.5631 6.14282 12.1429C6.14282 10.7228 4.99156 9.5715 3.5714 9.5715Z" stroke="black" stroke-width="1.71428" stroke-linecap="round"/>
</svg>
