<svg width="30" height="30" viewBox="0 0 30 30" fill="none" xmlns="http://www.w3.org/2000/svg">
<path d="M17.8125 9.375L14.0625 5.625L17.8125 1.875" stroke="white" stroke-width="1.875" stroke-linecap="round" stroke-linejoin="round"/>
<path d="M12.1289 20.625L15.8789 24.375L12.1289 28.125" stroke="white" stroke-width="1.875" stroke-linecap="round" stroke-linejoin="round"/>
<path d="M6.5625 8.4375C8.1158 8.4375 9.375 7.1783 9.375 5.625C9.375 4.0717 8.1158 2.8125 6.5625 2.8125C5.0092 2.8125 3.75 4.0717 3.75 5.625C3.75 7.1783 5.0092 8.4375 6.5625 8.4375Z" stroke="white" stroke-width="1.875" stroke-linecap="round" stroke-linejoin="round"/>
<path d="M23.4375 27.1875C24.9908 27.1875 26.25 25.9283 26.25 24.375C26.25 22.8217 24.9908 21.5625 23.4375 21.5625C21.8842 21.5625 20.625 22.8217 20.625 24.375C20.625 25.9283 21.8842 27.1875 23.4375 27.1875Z" stroke="white" stroke-width="1.875" stroke-linecap="round" stroke-linejoin="round"/>
<path d="M15 5.625H19.9219C20.8543 5.625 21.7485 5.9954 22.4078 6.6547C23.0671 7.31401 23.4375 8.20822 23.4375 9.14062V21.5625" stroke="white" stroke-width="1.875" stroke-linecap="round" stroke-linejoin="round"/>
<path d="M14.9414 24.375H10.0195C9.08713 24.375 8.19292 24.0046 7.53361 23.3453C6.8743 22.686 6.50391 21.7918 6.50391 20.8594V8.4375" stroke="white" stroke-width="1.875" stroke-linecap="round" stroke-linejoin="round"/>
</svg>
