<svg width="22" height="21" viewBox="0 0 22 21" fill="none" xmlns="http://www.w3.org/2000/svg">
<path d="M19.97 7.72335L20.1215 7.62708C20.2564 7.5301 20.3469 7.38614 20.3739 7.22572C20.4009 7.06531 20.3622 6.90103 20.2661 6.7677C20.17 6.63438 20.024 6.54248 19.859 6.51148C19.694 6.48048 19.523 6.51282 19.3822 6.60163C9.27958 13.4315 1.92465 6.93647 1.6156 6.65856C1.48998 6.55062 1.32585 6.4942 1.15796 6.50125C0.990076 6.5083 0.831622 6.57827 0.716162 6.69633C0.600702 6.8144 0.537306 6.97129 0.539403 7.13377C0.541499 7.29626 0.608923 7.45156 0.727393 7.56681C0.741244 7.57936 0.971518 7.78362 1.39138 8.08414L0.0937048 10.1476C0.00491893 10.2893 -0.0221567 10.4593 0.0184093 10.6202C0.0589753 10.7812 0.163875 10.9201 0.310128 11.0064C0.411794 11.0657 0.528168 11.0972 0.646883 11.0977C0.757745 11.0975 0.866708 11.0698 0.96339 11.0174C1.06007 10.9649 1.14125 10.8894 1.1992 10.798L2.46484 8.78144C3.32198 9.28342 4.2274 9.70394 5.1684 10.0371L4.5451 12.0528C4.52037 12.1313 4.51197 12.2137 4.52037 12.2954C4.52877 12.377 4.55382 12.4562 4.59407 12.5285C4.63431 12.6007 4.68896 12.6645 4.75485 12.7162C4.82074 12.7679 4.89656 12.8064 4.97795 12.8296L5.16407 12.8564C5.30281 12.8558 5.43768 12.8121 5.54881 12.7318C5.65993 12.6515 5.74143 12.5388 5.78131 12.4103L6.39855 10.4222C7.48483 10.707 8.60143 10.8699 9.72628 10.9077V12.905C9.72628 13.0706 9.79432 13.2294 9.91543 13.3466C10.0365 13.4637 10.2008 13.5295 10.3721 13.5295C10.5434 13.5295 10.7076 13.4637 10.8287 13.3466C10.9499 13.2294 11.0179 13.0706 11.0179 12.905V10.8959C12.1481 10.8325 13.2675 10.6472 14.3551 10.3435L15.1498 12.3709C15.1967 12.4895 15.2798 12.5916 15.388 12.6635C15.4962 12.7354 15.6245 12.7738 15.7558 12.7736L15.9844 12.7342C16.0637 12.7052 16.1364 12.6614 16.1983 12.6052C16.2601 12.549 16.3099 12.4816 16.3448 12.4068C16.3797 12.3321 16.399 12.2514 16.4016 12.1694C16.4042 12.0874 16.3901 12.0057 16.3601 11.9289L15.5862 9.95338C16.7313 9.53948 17.8328 9.02063 18.8758 8.40391L19.9224 9.75499C19.9829 9.83296 20.0613 9.89624 20.1515 9.93983C20.2416 9.98342 20.341 10.0061 20.4418 10.0061C20.5816 10.0067 20.7177 9.96258 20.8288 9.88055C20.8968 9.83145 20.9542 9.76986 20.9976 9.69931C21.041 9.62875 21.0696 9.55062 21.0817 9.46937C21.0939 9.38813 21.0893 9.30536 21.0684 9.22581C21.0474 9.14626 21.0104 9.07149 20.9595 9.00578L19.97 7.72335Z" fill="#D0D1D5"/>
</svg>
