<svg width="28" height="28" viewBox="0 0 28 28" fill="none" xmlns="http://www.w3.org/2000/svg">
<g clip-path="url(#clip0_84_9285)">
<path d="M18.4637 13.3913C18.4637 12.4488 17.4294 11.8133 15.3608 10.5422C13.2641 9.25372 12.2156 8.60949 11.4339 9.08251C10.6521 9.55553 10.6521 10.8341 10.6521 13.3913C10.6521 15.9484 10.6521 17.227 11.4339 17.7C12.2156 18.1731 13.2641 17.5288 15.3608 16.2404C17.4294 14.9692 18.4637 14.3337 18.4637 13.3913Z" stroke="white" stroke-width="1.67391" stroke-linecap="round"/>
<path d="M19.5797 3.72486C17.9383 2.77536 16.0326 2.23193 14 2.23193C7.83682 2.23193 2.84058 7.22817 2.84058 13.3914C2.84058 15.1765 3.25975 16.8637 4.00502 18.3601C4.20307 18.7577 4.26899 19.2122 4.15417 19.6413L3.48951 22.1255C3.20097 23.2038 4.18753 24.1903 5.26591 23.9019L7.75004 23.2372C8.17917 23.1224 8.63367 23.1883 9.0313 23.3863C10.5276 24.1316 12.2148 24.5508 14 24.5508C20.1631 24.5508 25.1594 19.5545 25.1594 13.3914C25.1594 11.3588 24.616 9.45305 23.6665 7.81164" stroke="white" stroke-width="1.67391" stroke-linecap="round"/>
</g>
<defs>
<clipPath id="clip0_84_9285">
<rect width="28" height="28" fill="white"/>
</clipPath>
</defs>
</svg>
