<svg width="14" height="19" viewBox="0 0 14 19" fill="none" xmlns="http://www.w3.org/2000/svg">
<path d="M11.8261 7.88432C11.5382 7.72151 11.2627 7.5462 10.9373 7.3584C11.2627 7.15811 11.5634 6.9828 11.8513 6.81999C13.1909 6.09377 13.9296 4.61657 13.7041 3.11417C13.3785 0.647994 10.5365 -0.779038 8.38327 0.447701C6.17985 1.71233 3.97643 2.95176 1.798 4.25366C0.0703247 5.29281 -0.180143 6.66987 0.0953101 8.2974C0.270617 9.31156 0.946655 10.0626 1.83548 10.576C2.14841 10.7513 2.44885 10.9266 2.78697 11.1269C2.41137 11.3522 2.07345 11.5525 1.71035 11.7403C0.107803 12.7544 -0.443103 14.8325 0.458417 16.5102C1.40991 18.2756 3.61333 18.9516 5.37848 18.0001C7.28146 16.9235 9.18444 15.8217 11.0749 14.7201C11.5257 14.4571 12.0014 14.2193 12.402 13.8937C14.4176 12.216 14.1172 9.17393 11.8261 7.88432ZM5.10323 11.9907V6.51975L9.8357 9.24909L5.10323 11.9907Z" fill="white"/>
</svg>
