<svg width="19" height="13" viewBox="0 0 19 13" fill="none" xmlns="http://www.w3.org/2000/svg">
<path fill-rule="evenodd" clip-rule="evenodd" d="M7.41783 8.90139V3.69042C9.26774 4.56089 10.7005 5.40178 12.395 6.30837C10.9974 7.08346 9.26774 7.95313 7.41783 8.90139ZM17.7274 1.09876C17.4082 0.678343 16.8644 0.351082 16.2854 0.242737C14.5834 -0.0804524 3.96591 -0.0813717 2.26493 0.242737C1.8006 0.329781 1.38713 0.54018 1.03195 0.867074C-0.464622 2.25612 0.00433288 9.70515 0.365065 10.9118C0.516756 11.4341 0.712855 11.8107 0.959817 12.058C1.278 12.3849 1.71365 12.61 2.21405 12.7109C3.61535 13.0007 10.8346 13.1628 16.2557 12.7544C16.7552 12.6674 17.1973 12.435 17.5461 12.0943C18.9298 10.7108 18.8354 2.84341 17.7274 1.09876Z" fill="black"/>
</svg>
