<svg width="52" height="22" viewBox="0 0 52 22" fill="none" xmlns="http://www.w3.org/2000/svg">
<rect x="0.0949707" y="2.38647" width="50.9325" height="18.1902" rx="2.72853" fill="#E8163C"/>
<path d="M9.8749 15.5674V13.2882H6.06133V11.9575L9.55657 6.65419H11.1991V11.9639H12.0141V13.2882H11.1991V15.5674H9.8749ZM7.60204 11.9575L9.8749 11.9639L9.86217 8.4814L7.60204 11.9575ZM13.2859 15.5674V14.3896C13.5872 14.1392 13.9332 13.8484 14.3236 13.5173C14.7141 13.182 15.111 12.8276 15.5142 12.4541C15.9174 12.0764 16.2888 11.7008 16.6283 11.3273C16.9679 10.9495 17.2416 10.593 17.4496 10.2577C17.6618 9.91812 17.7679 9.62313 17.7679 9.37272C17.7679 9.08834 17.6979 8.82944 17.5579 8.59599C17.422 8.35831 17.2374 8.16943 17.004 8.02937C16.7705 7.88506 16.5116 7.81291 16.2272 7.81291C15.9429 7.81291 15.6818 7.88506 15.4442 8.02937C15.2107 8.16943 15.0218 8.35831 14.8775 8.59599C14.7375 8.82944 14.6674 9.08834 14.6674 9.37272H13.3432C13.3432 8.83368 13.4748 8.3477 13.7379 7.91477C14.0053 7.4776 14.3555 7.13168 14.7884 6.87702C15.2256 6.61812 15.7052 6.48866 16.2272 6.48866C16.7535 6.48866 17.2332 6.61812 17.6661 6.87702C18.099 7.13593 18.4449 7.48397 18.7038 7.92114C18.9627 8.35406 19.0922 8.83792 19.0922 9.37272C19.0922 9.66982 19.0306 9.97542 18.9076 10.2895C18.7845 10.6036 18.6126 10.924 18.3919 11.2509C18.1754 11.5777 17.9229 11.9087 17.6342 12.244C17.3456 12.5793 17.0358 12.9146 16.7047 13.25C16.3737 13.5853 16.0362 13.9163 15.6924 14.2431H19.1686V15.5674H13.2859ZM23.4422 15.7329C22.9159 15.7329 22.4406 15.6141 22.0161 15.3764C21.5959 15.1345 21.233 14.8013 20.9275 14.3768C20.6219 13.9524 20.3884 13.4622 20.2271 12.9062C20.0658 12.3459 19.9852 11.7474 19.9852 11.1108C19.9852 10.4741 20.0658 9.87567 20.2271 9.31542C20.3884 8.75516 20.6219 8.26493 20.9275 7.84474C21.233 7.4203 21.5959 7.08924 22.0161 6.85156C22.4406 6.60963 22.9159 6.48866 23.4422 6.48866C23.9601 6.48866 24.4312 6.60963 24.8556 6.85156C25.2801 7.08924 25.6408 7.4203 25.9379 7.84474C26.2393 8.26493 26.4706 8.75516 26.6319 9.31542C26.7932 9.87567 26.8738 10.4741 26.8738 11.1108C26.8738 11.7474 26.7932 12.3459 26.6319 12.9062C26.4706 13.4622 26.2393 13.9524 25.9379 14.3768C25.6408 14.8013 25.2801 15.1345 24.8556 15.3764C24.4312 15.6141 23.9601 15.7329 23.4422 15.7329ZM23.4422 14.4087C23.9304 14.4087 24.3357 14.2559 24.6583 13.9503C24.9851 13.6404 25.2291 13.2351 25.3904 12.7343C25.5517 12.2334 25.6323 11.6923 25.6323 11.1108C25.6323 10.4996 25.5475 9.94571 25.3777 9.44911C25.2122 8.94828 24.966 8.55143 24.6392 8.25857C24.3166 7.96146 23.9176 7.81291 23.4422 7.81291C23.0645 7.81291 22.7356 7.90204 22.4554 8.0803C22.1795 8.25857 21.9503 8.50262 21.7678 8.81246C21.5896 9.1223 21.4538 9.47458 21.3604 9.86931C21.2712 10.264 21.2267 10.6779 21.2267 11.1108C21.2267 11.6923 21.3094 12.2334 21.475 12.7343C21.6405 13.2351 21.8867 13.6404 22.2135 13.9503C22.5446 14.2559 22.9541 14.4087 23.4422 14.4087ZM28.4538 15.7329C28.2586 15.7329 28.0931 15.665 27.9572 15.5292C27.8257 15.3934 27.7599 15.2278 27.7599 15.0326C27.7599 14.8416 27.8257 14.6782 27.9572 14.5424C28.0931 14.4065 28.2586 14.3386 28.4538 14.3386C28.6491 14.3386 28.8146 14.4065 28.9504 14.5424C29.0862 14.6782 29.1541 14.8416 29.1541 15.0326C29.1541 15.2278 29.0862 15.3934 28.9504 15.5292C28.8146 15.665 28.6491 15.7329 28.4538 15.7329ZM31.904 15.5674L33.7057 12.4478C33.2771 12.5284 32.859 12.5114 32.4515 12.3968C32.0483 12.278 31.6854 12.0849 31.3628 11.8175C31.0403 11.5458 30.7835 11.2169 30.5925 10.8307C30.4015 10.4444 30.306 10.02 30.306 9.55735C30.306 9.13715 30.3845 8.74243 30.5416 8.37317C30.7028 7.99966 30.9236 7.67284 31.2037 7.39271C31.4838 7.10834 31.8085 6.88763 32.1778 6.73059C32.5513 6.5693 32.9502 6.48866 33.3747 6.48866C33.9307 6.48866 34.44 6.6266 34.9027 6.90249C35.3653 7.17837 35.7346 7.54976 36.0104 8.01664C36.2863 8.47927 36.4243 8.99284 36.4243 9.55735C36.4243 9.85021 36.3882 10.1176 36.316 10.3595C36.2481 10.6015 36.1399 10.8561 35.9913 11.1235L33.4383 15.5674H31.904ZM33.362 11.2954C33.7015 11.2954 34.0029 11.2148 34.266 11.0535C34.5292 10.888 34.735 10.6736 34.8836 10.4105C35.0364 10.1431 35.1128 9.85657 35.1128 9.55098C35.1128 9.21992 35.0321 8.92281 34.8708 8.65966C34.7095 8.39651 34.4952 8.18853 34.2278 8.03574C33.9647 7.88294 33.6803 7.80654 33.3747 7.80654C33.0351 7.80654 32.7338 7.88931 32.4706 8.05484C32.2075 8.22037 31.9995 8.43683 31.8467 8.70423C31.6939 8.96738 31.6175 9.24963 31.6175 9.55098C31.6175 9.86931 31.6939 10.1622 31.8467 10.4296C32.0037 10.6927 32.2138 10.9028 32.477 11.0599C32.7401 11.2169 33.0351 11.2954 33.362 11.2954ZM37.3097 15.5674L39.6399 12.3714L37.3225 9.18808H38.9587L40.4548 11.2381L41.9573 9.18808H43.5872L41.2761 12.3714L43.6062 15.5674H41.97L40.4548 13.4919L38.9459 15.5674H37.3097Z" fill="white" fill-opacity="0.93"/>
</svg>
