<svg width="32" height="32" viewBox="0 0 32 32" fill="none" xmlns="http://www.w3.org/2000/svg">
<path d="M26.0824 9.33333C26.3873 7.59364 25.0485 6 23.2824 6H8.71726C6.95106 6 5.61238 7.59364 5.91721 9.33333" stroke="white" stroke-width="1.4"/>
<path d="M23.3332 6.00008C23.3711 5.65464 23.39 5.48188 23.3903 5.33921C23.3933 3.97437 22.3652 2.8276 21.0081 2.68197C20.8663 2.66675 20.6925 2.66675 20.3451 2.66675H11.6546C11.3071 2.66675 11.1334 2.66675 10.9915 2.68197C9.63445 2.8276 8.60641 3.97437 8.60938 5.3392C8.60969 5.48188 8.62861 5.65461 8.66643 6.00008" stroke="white" stroke-width="1.4"/>
<path d="M19.4415 18.1546C20.1861 18.6162 20.1861 19.811 19.4415 20.2726L14.9461 23.0594C14.2225 23.5079 13.3333 22.9242 13.3333 22.0005V16.4267C13.3333 15.5031 14.2225 14.9193 14.9461 15.3678L19.4415 18.1546Z" stroke="white" stroke-width="1.4"/>
<path d="M3.1781 18.3906C2.58339 14.1725 2.28604 12.0635 3.54984 10.6984C4.81364 9.33325 7.06352 9.33325 11.5633 9.33325H20.4369C24.9366 9.33325 27.1865 9.33325 28.4503 10.6984C29.7141 12.0635 29.4167 14.1725 28.8221 18.3906L28.2581 22.3906C27.7917 25.6985 27.5586 27.3523 26.3623 28.3429C25.1661 29.3333 23.4017 29.3333 19.8729 29.3333H12.1272C8.5985 29.3333 6.83412 29.3333 5.63787 28.3429C4.44162 27.3523 4.20843 25.6985 3.74206 22.3906L3.1781 18.3906Z" stroke="white" stroke-width="1.4"/>
</svg>
