<svg width="28" height="27" viewBox="0 0 28 27" fill="none" xmlns="http://www.w3.org/2000/svg">
<g clip-path="url(#clip0_84_9235)">
<path d="M20.25 1.125V24.875" stroke="white" stroke-width="1.6" stroke-linecap="round"/>
<path d="M7.75 1.125V24.875" stroke="white" stroke-width="1.6" stroke-linecap="round"/>
<path d="M1.5 13H7.75M26.5 13H20.25" stroke="white" stroke-width="1.6" stroke-linecap="round"/>
<path d="M2.125 6.75H7.75M25.875 6.75H20.25" stroke="white" stroke-width="1.6" stroke-linecap="round"/>
<path d="M2.125 18.75H7.75M25.875 18.75H20.25" stroke="white" stroke-width="1.6" stroke-linecap="round"/>
<path d="M16.5 13C16.5 12.3403 15.838 11.8953 14.514 11.0054C13.1719 10.1034 12.5008 9.65238 12.0004 9.98353C11.5 10.3147 11.5 11.2098 11.5 13C11.5 14.7903 11.5 15.6854 12.0004 16.0165C12.5008 16.3476 13.1719 15.8966 14.514 14.9946C15.838 14.1048 16.5 13.6598 16.5 13Z" stroke="white" stroke-width="1.6" stroke-linecap="round"/>
<path d="M1.5 13C1.5 7.10744 1.5 4.16116 3.33059 2.33059C5.16116 0.5 8.10744 0.5 14 0.5C19.8925 0.5 22.8389 0.5 24.6694 2.33059C25.69 3.35117 26.1416 4.71857 26.3414 6.75M26.5 13C26.5 18.8925 26.5 21.8389 24.6694 23.6694C22.8389 25.5 19.8925 25.5 14 25.5C8.10744 25.5 5.16116 25.5 3.33059 23.6694C2.30999 22.6489 1.8584 21.2814 1.65859 19.25" stroke="white" stroke-width="1.6" stroke-linecap="round"/>
</g>
<defs>
<clipPath id="clip0_84_9235">
<rect width="27" height="27" fill="white" transform="translate(0.5)"/>
</clipPath>
</defs>
</svg>
